<svg xmlns="http://www.w3.org/2000/svg" viewBox="0 0 512 640" x="0px" y="0px"><defs><style>.cls-1,.cls-2{stroke:#000;stroke-linecap:round;stroke-linejoin:round;stroke-width:20px;}.cls-2{fill:none;}</style></defs><title>Evil-Emoji-Emotion-Face-Expression-Feeling</title><path class="cls-1" d="M176.69,224.27a25.12,25.12,0,1,0,46.08,19.53Z"/><path class="cls-1" d="M335.31,224.27a25.12,25.12,0,1,1-46.08,19.53Z"/><path class="cls-1" d="M256,348.3a53.66,53.66,0,0,0,53.66-53.65H202.34A53.66,53.66,0,0,0,256,348.3Z"/><path class="cls-2" d="M317.11,386.52a40.07,40.07,0,0,0-.44-5.82,126.75,126.75,0,0,1-58.84,14.4h0a126.8,126.8,0,0,1-61.61-15.88,40.13,40.13,0,0,0-.67,7.3c0,27.27,27.21,49.37,60.78,49.37S317.11,413.79,317.11,386.52Z"/><path class="cls-2" d="M354,350.81A127,127,0,0,1,257.5,395.1h0a127.06,127.06,0,0,1-97.44-45.37C68.5,396.7,40.19,501.56,40.19,501.56H471.81S443.93,398.3,354,350.81Z"/><rect class="cls-2" x="130.16" y="42.95" width="254.69" height="352.47" rx="127.35" ry="127.35"/><path class="cls-1" d="M256.78,10.38A177.51,177.51,0,0,0,79,188.11V422.53c18.55-26.57,44.8-54.13,80.9-72.7a126.84,126.84,0,0,1-29.71-81.76V170.3a127,127,0,0,1,10.52-50.76l20.39,62.74H353.94l20.38-62.74a126.87,126.87,0,0,1,10.53,50.76v97.77a126.84,126.84,0,0,1-30.63,82.84c37,19.6,63.47,48.64,81.82,76V188.11C436,90,355.38,10.38,256.78,10.38Z"/><text x="0" y="527" fill="#000000" font-size="5px" font-weight="bold" font-family="'Helvetica Neue', Helvetica, Arial-Unicode, Arial, Sans-serif"></text><text x="0" y="532" fill="#000000" font-size="5px" font-weight="bold" font-family="'Helvetica Neue', Helvetica, Arial-Unicode, Arial, Sans-serif"></text></svg>